<?xml version="1.0" standalone="no"?>
<!DOCTYPE svg PUBLIC "-//W3C//DTD SVG 20010904//EN"
 "http://www.w3.org/TR/2001/REC-SVG-20010904/DTD/svg10.dtd">
<svg version="1.0" xmlns="http://www.w3.org/2000/svg"
 width="512.000000pt" height="512.000000pt" viewBox="0 0 512.000000 512.000000"
 preserveAspectRatio="xMidYMid meet">

<g transform="translate(0.000000,512.000000) scale(0.100000,-0.100000)"
fill="#000000" stroke="none">
<path d="M3365 4341 c-45 -28 -97 -87 -149 -167 -52 -82 -177 -330 -261 -519
l-57 -130 -217 0 c-191 -1 -234 -4 -375 -28 -87 -16 -165 -26 -172 -23 -8 3
-53 31 -100 61 -161 105 -429 263 -584 343 -312 162 -531 244 -705 264 -93 11
-104 10 -140 -8 -66 -32 -80 -73 -79 -229 2 -216 90 -638 251 -1194 l35 -123
-35 -72 c-68 -137 -93 -274 -77 -428 18 -176 89 -412 133 -443 31 -22 65 -18
92 10 33 32 32 54 -9 177 -89 269 -86 436 14 635 l52 102 -42 143 c-23 79 -48
168 -56 198 -132 493 -203 841 -204 998 0 34 4 62 9 62 11 0 142 -93 220 -156
106 -87 313 -279 410 -381 81 -86 102 -103 127 -103 54 0 93 54 74 104 -12 32
-163 190 -315 329 -60 56 -112 105 -113 109 -6 14 225 -99 387 -188 174 -96
451 -264 451 -273 0 -3 -35 -17 -78 -29 -139 -42 -356 -133 -379 -158 -30 -33
-29 -69 2 -99 33 -34 65 -32 165 11 247 105 572 194 813 224 139 18 479 7 617
-19 424 -79 731 -217 980 -440 39 -34 70 -65 70 -69 0 -4 -62 -7 -138 -7 -198
-1 -371 -38 -594 -128 l-87 -35 -6 46 c-23 184 -107 304 -184 261 -14 -8 -32
-28 -40 -43 -14 -31 -10 -45 42 -126 20 -32 22 -48 22 -168 0 -130 1 -134 25
-155 14 -12 38 -43 53 -69 l28 -48 -172 0 -171 0 7 -27 c10 -41 48 -87 100
-119 41 -27 45 -32 45 -70 0 -23 -7 -79 -16 -125 -26 -136 -104 -270 -236
-403 -66 -66 -78 -84 -78 -112 0 -40 38 -74 83 -74 25 0 46 16 121 92 51 51
105 114 121 140 29 46 45 60 45 38 0 -19 92 -160 117 -180 34 -27 69 -25 98 5
33 32 32 70 -6 125 -16 25 -53 89 -80 143 l-50 99 15 71 c9 40 18 105 20 144
4 70 6 75 49 123 l46 51 53 -41 c72 -54 132 -73 222 -68 168 8 338 150 396
331 6 20 15 68 18 105 l7 67 62 0 c73 0 93 14 102 71 l6 38 48 -64 c156 -207
227 -404 227 -627 0 -249 -89 -438 -316 -669 -226 -230 -447 -362 -734 -439
-221 -60 -456 -80 -752 -64 -220 11 -309 22 -493 60 -408 84 -758 251 -1000
479 -91 86 -121 98 -164 63 -37 -31 -37 -72 1 -121 99 -129 384 -319 641 -426
352 -148 726 -216 1184 -216 590 0 993 144 1362 486 212 197 331 373 399 594
23 77 26 101 26 250 1 143 -2 177 -23 255 -52 200 -160 397 -311 568 -34 38
-51 73 -90 185 -174 503 -406 963 -584 1159 -93 102 -155 126 -221 84z m118
-204 c134 -157 305 -484 463 -884 17 -46 29 -83 25 -83 -4 0 -27 13 -52 28
-212 134 -513 246 -790 292 l-67 12 25 61 c82 208 311 627 342 627 5 0 29 -24
54 -53z m347 -1524 c0 -53 -31 -130 -73 -179 -37 -44 -112 -90 -168 -104 -41
-10 -53 -9 -90 8 -24 10 -57 32 -73 48 -33 33 -86 103 -86 114 0 4 23 17 51
30 55 23 68 19 69 -25 1 -43 39 -105 72 -119 77 -33 138 42 138 170 l0 73 63
14 c98 24 97 24 97 -30z"/>
<path d="M2727 3033 c-23 -26 -29 -65 -15 -89 7 -12 26 -43 42 -69 53 -85 70
-177 51 -265 -8 -38 -13 -37 -123 9 -98 41 -295 105 -417 135 -195 47 -373 66
-629 66 -189 -1 -201 -3 -224 -47 -17 -32 -15 -49 12 -79 18 -22 32 -28 67
-28 l44 -1 25 -95 c70 -259 211 -437 397 -499 130 -44 349 -22 500 49 118 55
236 155 289 246 23 40 26 41 53 31 62 -23 107 22 150 150 50 150 4 357 -107
476 -31 32 -89 38 -115 10z m-742 -389 c72 -9 132 -18 134 -20 3 -3 -4 -19
-15 -37 -29 -49 -27 -189 4 -238 24 -40 69 -64 101 -54 62 19 103 135 82 231
-7 30 -11 57 -9 59 4 4 191 -54 276 -86 36 -13 62 -29 62 -37 0 -8 -33 -47
-72 -87 -98 -97 -188 -141 -328 -162 -117 -17 -191 -9 -267 29 -55 28 -131
110 -171 187 -37 71 -85 209 -78 227 6 15 73 12 281 -12z"/>
</g>
</svg>
