<?xml version="1.0" standalone="no"?>
<!DOCTYPE svg PUBLIC "-//W3C//DTD SVG 20010904//EN"
 "http://www.w3.org/TR/2001/REC-SVG-20010904/DTD/svg10.dtd">
<svg version="1.0" xmlns="http://www.w3.org/2000/svg"
 width="512.000000pt" height="512.000000pt" viewBox="0 0 512.000000 512.000000"
 preserveAspectRatio="xMidYMid meet">

<g transform="translate(0.000000,512.000000) scale(0.100000,-0.100000)"
fill="#000000" stroke="none">
<path d="M3574 4278 c-41 -36 -132 -155 -178 -234 l-30 -50 -157 3 -158 2 -77
57 c-173 128 -348 220 -439 231 -62 8 -70 -9 -69 -131 1 -89 24 -322 40 -398
l6 -28 -915 -2 -915 -3 -27 -25 c-57 -52 -55 -8 -55 -1065 0 -1057 -2 -1013
54 -1065 27 -24 32 -25 205 -28 l178 -3 6 -53 c11 -108 81 -191 185 -219 52
-15 369 -87 687 -157 72 -16 283 -63 470 -105 780 -175 874 -195 902 -195 60
0 131 29 176 73 42 41 62 84 81 169 6 26 8 26 39 15 18 -7 85 -12 152 -12 140
0 241 24 255 59 4 12 13 98 20 191 7 94 17 175 22 181 5 7 25 15 44 19 101 18
263 124 375 242 124 132 226 305 264 449 26 96 30 229 11 316 -39 175 -201
346 -388 409 -34 11 -65 16 -69 12 -5 -5 -4 -24 1 -43 5 -18 8 -36 5 -38 -2
-3 -42 20 -87 51 -46 30 -121 74 -168 97 -47 23 -87 44 -89 46 -2 2 6 34 17
71 29 92 62 261 62 315 0 102 -143 520 -243 711 -49 95 -110 167 -142 167 -8
0 -31 -15 -51 -32z m47 -70 c6 -24 22 -101 33 -173 18 -104 25 -131 39 -133
11 -2 17 3 17 15 0 26 -49 304 -56 314 -3 5 -1 9 5 9 13 0 73 -101 113 -187
34 -75 118 -298 118 -315 0 -5 -30 17 -66 51 -78 71 -213 141 -330 171 -42 11
-79 22 -82 25 -12 12 167 265 188 265 5 0 15 -19 21 -42z m-948 -9 c81 -40
327 -198 327 -210 0 -4 -28 -12 -62 -19 -120 -25 -276 -98 -359 -167 -16 -14
-32 -24 -34 -21 -18 18 -57 448 -40 448 9 0 85 -64 199 -167 44 -40 86 -73 93
-73 31 0 6 33 -84 116 -143 128 -149 134 -135 134 7 0 49 -18 95 -41z m782
-268 c98 -27 146 -45 223 -86 173 -91 292 -261 292 -416 0 -61 -32 -220 -64
-321 -18 -57 -21 -79 -13 -86 7 -5 63 -35 125 -67 191 -97 331 -215 383 -323
33 -67 31 -159 -4 -228 -48 -96 -158 -186 -318 -264 l-81 -39 -37 19 c-20 11
-43 25 -52 32 -30 24 -59 83 -59 118 1 32 6 39 79 88 112 75 134 131 73 185
-25 23 -144 65 -207 74 -42 5 -47 4 -43 -13 2 -10 12 -20 23 -22 11 -2 43 -10
72 -18 l51 -14 23 -67 c25 -76 31 -64 -65 -130 -38 -27 -46 -38 -46 -64 0 -90
66 -183 151 -211 37 -12 44 -19 51 -49 12 -62 -44 -883 -62 -903 -15 -16 -125
-36 -201 -36 -70 0 -176 14 -187 25 -2 2 2 30 10 61 12 51 17 59 43 66 36 10
102 -3 169 -32 36 -15 52 -18 60 -10 25 26 -104 80 -189 80 -63 0 -62 -3 -39
96 l15 69 90 58 c109 71 149 104 149 123 0 23 -16 17 -87 -34 -97 -68 -124
-84 -130 -78 -3 3 18 110 47 238 55 248 57 273 21 353 -29 65 -82 110 -159
133 -37 12 -276 67 -532 123 -256 56 -469 106 -474 110 -5 5 9 89 33 199 24
105 40 198 37 207 -13 33 -34 -10 -56 -117 -34 -161 -39 -180 -56 -180 -8 0
-28 -7 -44 -15 -17 -9 -30 -12 -30 -8 0 5 23 46 50 93 54 91 59 110 35 130
-24 20 -85 -3 -214 -81 -63 -38 -116 -67 -118 -65 -8 8 51 92 106 149 63 66
169 148 252 195 50 28 58 30 69 17 10 -12 16 -13 26 -4 11 9 4 22 -39 69 -177
191 -227 383 -142 550 46 91 157 191 280 253 64 32 202 75 280 87 96 15 348 4
430 -19z m-2085 -362 c0 -12 5 -19 13 -16 21 8 47 -13 47 -37 0 -30 -17 -44
-52 -44 -27 0 -28 2 -28 59 0 33 4 59 10 59 6 0 10 -9 10 -21z m293 -14 c-2
-21 1 -25 9 -17 7 7 18 12 26 12 12 0 12 -3 1 -16 -10 -13 -10 -19 0 -36 17
-28 6 -35 -20 -12 -13 12 -19 14 -17 5 2 -7 -3 -16 -9 -18 -10 -3 -13 12 -13
57 0 45 3 60 13 57 6 -2 11 -17 10 -32z m-633 -52 c0 -44 -24 -40 -28 5 -4 40
-22 32 -22 -9 0 -40 -18 -37 -22 4 -2 17 -7 32 -13 32 -5 0 -11 -15 -13 -32
-5 -47 -22 -41 -22 6 l0 40 48 3 c59 4 72 -5 72 -49z m84 44 c38 -27 -2 -95
-41 -71 -25 16 -29 55 -7 71 10 7 21 13 24 13 3 0 14 -6 24 -13z m100 -3 c19
-19 22 -78 4 -72 -7 3 -14 19 -16 36 -5 50 -32 34 -32 -19 0 -10 -4 -19 -10
-19 -5 0 -10 18 -10 39 0 33 4 40 23 44 12 2 23 5 24 6 1 0 9 -6 17 -15z m97
6 c23 -13 25 -52 4 -70 -8 -7 -25 -10 -39 -6 -32 8 -40 42 -15 67 22 22 24 22
50 9z m190 0 c13 -7 19 -21 19 -44 0 -30 -3 -34 -27 -34 -16 0 -33 5 -40 10
-16 13 -5 38 18 38 10 0 19 5 19 10 0 6 -10 10 -22 10 -19 0 -20 2 -8 10 19
12 17 12 41 0z m117 -42 c-4 -46 -28 -49 -28 -4 0 20 -4 36 -9 36 -11 0 -21
-25 -21 -51 0 -10 -4 -19 -10 -19 -5 0 -10 18 -10 39 0 33 4 40 23 43 38 7 59
-10 55 -44z m-197 -457 c60 -60 58 -61 -237 -61 -296 0 -277 -6 -215 63 l25
27 199 0 199 0 29 -29z m-90 -81 l119 0 0 -45 0 -45 -95 0 -95 0 0 -100 0
-100 -75 0 -75 0 0 144 0 145 38 4 c20 2 43 2 50 0 8 -2 67 -3 133 -3z m-231
-45 l0 -45 -90 0 -90 0 0 45 0 45 90 0 90 0 0 -45z m3315 -79 c91 -47 194
-154 241 -250 l39 -80 0 -135 c0 -124 -3 -143 -28 -216 -108 -303 -347 -547
-616 -630 l-24 -7 7 93 c3 52 9 147 13 212 l6 119 47 48 c26 27 58 73 70 103
17 40 32 60 65 80 200 127 276 309 196 471 -17 33 -50 83 -74 109 -35 38 -44
55 -45 88 -2 37 0 40 21 34 12 -4 49 -21 82 -39z m-3315 -21 l0 -45 -90 0 -90
0 0 45 0 45 90 0 90 0 0 -45z m350 0 l0 -45 -90 0 -90 0 0 45 0 45 90 0 90 0
0 -45z m-350 -100 l0 -45 -90 0 -90 0 0 45 0 45 90 0 90 0 0 -45z m350 6 c0
-34 -4 -40 -27 -48 -16 -4 -56 -7 -90 -5 l-63 3 0 44 0 45 90 0 90 0 0 -39z
m-133 -115 l-42 -44 -138 -1 c-105 -1 -145 2 -167 14 -28 15 -50 42 -50 64 0
8 71 11 220 11 l220 0 -43 -44z m1199 -98 c-3 -13 -6 -26 -6 -30 0 -11 -32 -9
-50 2 -13 9 -12 13 9 30 32 28 55 26 47 -2z m-873 -13 c71 -33 85 -108 31
-162 -23 -23 -24 -27 -10 -42 60 -66 0 -172 -96 -171 -32 1 -185 33 -193 42
-5 4 35 178 58 256 9 28 12 52 6 52 -13 0 -11 24 4 39 18 19 152 9 200 -14z
m2355 -22 c2 -11 -4 -25 -12 -32 -12 -10 -16 -6 -25 26 -6 21 -11 42 -11 47 0
17 45 -22 48 -41z m-1923 -167 c40 -17 68 -56 63 -88 -5 -37 -32 -33 -47 7
-22 62 -101 60 -133 -5 -40 -79 -12 -150 57 -150 29 0 39 6 53 30 19 33 39 39
49 14 8 -23 -17 -63 -51 -81 -68 -35 -157 11 -171 90 -13 70 29 157 89 183 40
17 49 17 91 0z m214 -73 c6 -21 16 -63 23 -95 7 -31 18 -55 23 -55 6 1 36 34
67 74 46 57 61 70 78 66 24 -6 23 -17 -14 -194 -19 -93 -23 -104 -41 -101 -11
2 -21 5 -23 7 -2 1 4 36 13 76 9 41 18 85 21 99 4 17 -13 0 -51 -50 -31 -41
-60 -75 -66 -74 -5 1 -13 2 -17 3 -5 0 -15 34 -22 74 -7 39 -15 78 -19 85 -4
7 -15 -20 -25 -60 -10 -40 -20 -81 -23 -90 -4 -17 -33 -25 -45 -12 -6 5 56
256 67 274 3 6 15 10 25 10 14 0 22 -11 29 -37z m331 -55 c0 -7 -11 -49 -25
-93 -14 -44 -25 -82 -25 -85 0 -2 37 33 83 78 60 60 88 81 100 76 21 -8 21
-22 -6 -169 -20 -109 -24 -120 -45 -123 -27 -4 -27 4 -2 123 10 49 17 91 16
92 -1 2 -42 -38 -91 -87 -48 -50 -96 -90 -106 -90 -11 0 -19 3 -19 7 0 4 17
70 37 145 34 127 39 138 60 138 13 0 23 -6 23 -12z m371 -81 c43 -29 66 -72
49 -93 -18 -20 -40 -17 -40 6 0 29 -36 60 -69 60 -54 0 -89 -63 -81 -145 2
-24 27 -51 56 -59 24 -7 74 27 74 50 0 8 6 14 14 14 21 0 35 -23 26 -45 -28
-73 -146 -85 -199 -21 -53 63 -15 208 63 242 44 19 68 17 107 -9z m1126 -24
c-8 -15 -26 -38 -40 -51 l-25 -23 -4 36 c-4 34 -2 37 36 54 23 10 42 17 44 15
2 -1 -3 -15 -11 -31z m-876 -91 c10 -40 20 -106 24 -146 7 -68 6 -75 -13 -85
-24 -13 -23 -13 -43 137 -7 50 -15 92 -18 92 -3 0 -20 -24 -38 -53 -35 -58
-100 -137 -113 -137 -4 0 -11 7 -14 16 -4 10 13 42 48 88 30 40 65 94 78 120
19 39 26 46 48 44 22 -3 26 -11 41 -76z m-1891 46 c0 -2 -7 -28 -15 -58 -18
-69 -19 -65 3 -67 15 -1 22 11 33 58 8 33 19 59 24 57 12 -3 12 -26 1 -85 -7
-39 -6 -43 13 -43 17 0 21 9 27 60 4 41 11 60 20 60 16 0 18 -36 5 -92 -5 -22
-5 -40 1 -46 14 -14 5 -57 -12 -57 -10 0 -14 8 -12 21 3 20 -5 23 -75 36 -87
15 -84 9 -57 106 9 32 20 52 29 52 8 0 15 -1 15 -2z m2172 -55 c38 -19 62 -57
54 -88 -8 -33 -17 -31 -41 8 -40 64 -107 74 -142 21 -21 -32 -10 -40 65 -50
42 -5 52 -10 50 -23 -4 -18 -70 -22 -120 -8 -26 7 -28 5 -28 -23 0 -42 31 -70
78 -70 20 0 46 7 56 15 29 22 38 18 34 -12 -2 -21 -12 -31 -40 -41 -73 -28
-161 15 -174 84 -14 74 36 172 101 200 32 13 63 10 107 -13z m-1899 -25 c9
-11 17 -31 17 -44 0 -27 -9 -28 -77 -15 -30 6 -43 5 -43 -3 1 -34 44 -52 76
-31 28 18 44 1 21 -23 -45 -44 -135 8 -123 71 15 72 84 96 129 45z m153 -52
c-6 -32 -5 -34 23 -38 26 -4 30 -1 33 21 2 13 9 27 17 29 12 4 13 -7 8 -59 -3
-35 -9 -72 -13 -82 -11 -30 -29 -13 -26 25 3 33 1 36 -28 40 -27 4 -31 1 -38
-26 -9 -32 -32 -48 -32 -21 0 43 33 145 47 145 12 0 14 -8 9 -34z m235 -37
c21 -21 24 -76 4 -72 -95 15 -105 15 -105 1 0 -36 56 -52 80 -23 10 12 16 13
24 5 19 -19 -32 -53 -69 -46 -61 12 -84 79 -44 130 26 33 79 36 110 5z m104
-37 c10 -63 19 -67 50 -22 28 41 55 53 55 24 0 -47 -25 -144 -37 -144 -16 0
-17 22 -3 70 l10 35 -25 -30 c-13 -16 -24 -33 -25 -37 0 -5 -6 -8 -14 -8 -16
0 -26 21 -26 56 0 38 -17 20 -24 -27 -4 -26 -11 -39 -19 -36 -15 5 -13 38 8
109 19 65 40 69 50 10z m246 -20 c21 -18 22 -22 11 -77 -7 -31 -9 -61 -6 -66
3 -5 -2 -9 -10 -9 -8 0 -18 5 -21 10 -3 6 -23 10 -44 10 -42 0 -61 14 -61 45
0 33 20 45 73 45 35 0 47 4 44 13 -3 7 -21 11 -51 10 -48 -1 -59 9 -28 26 27
16 68 13 93 -7z m158 -36 c27 -29 10 -47 -19 -21 -20 18 -61 17 -67 -2 -3 -7
10 -15 32 -19 47 -9 40 -30 -9 -26 -32 3 -37 1 -34 -15 4 -22 52 -30 74 -12
11 9 14 8 14 -9 0 -22 -18 -32 -58 -32 -59 0 -80 65 -42 128 25 41 74 45 109
8z m138 -52 l-6 -35 43 25 c40 23 56 25 56 5 0 -5 -14 -15 -30 -24 l-30 -16
20 -39 c23 -46 25 -60 7 -60 -7 0 -21 18 -31 40 -15 35 -20 39 -37 30 -10 -6
-19 -20 -19 -30 0 -11 -7 -20 -15 -20 -19 0 -19 22 0 85 22 72 23 75 36 75 8
0 10 -12 6 -36z m-1367 -23 c0 -5 17 -7 38 -4 33 4 42 1 59 -20 14 -18 24 -23
34 -16 17 11 70 12 85 1 28 -18 35 -51 24 -119 -16 -107 -18 -113 -41 -113
-17 0 -20 5 -16 23 15 62 28 151 23 163 -6 16 -49 18 -76 4 -12 -7 -20 -27
-25 -62 -10 -70 -21 -98 -40 -98 -18 0 -19 6 -1 99 8 41 12 80 9 87 -7 18 -58
18 -75 1 -7 -8 -22 -46 -32 -85 -15 -57 -22 -72 -37 -72 -11 0 -19 3 -19 6 0
15 42 167 52 189 11 24 38 35 38 16z m1600 -9 c21 -17 22 -22 12 -52 -7 -18
-12 -48 -12 -66 0 -33 -16 -46 -26 -21 -3 8 -18 11 -42 9 -50 -5 -81 25 -64
63 10 22 18 25 67 25 56 0 70 11 36 30 -13 7 -28 7 -46 0 -34 -13 -55 -2 -30
17 27 19 79 16 105 -5z m134 -27 c31 -6 51 -54 39 -91 -5 -15 -22 -37 -37 -48
-26 -20 -29 -20 -56 -4 l-28 16 -7 -34 c-5 -32 -14 -41 -27 -29 -7 7 6 77 27
150 15 50 19 55 41 50 13 -3 35 -7 48 -10z m189 -42 c17 -10 5 -23 -21 -23
-27 0 -29 -3 -40 -61 -12 -68 -17 -78 -32 -63 -7 7 -6 31 4 72 l14 62 -29 0
c-28 0 -37 9 -21 24 7 7 109 -1 125 -11z m-1485 -17 c79 -41 72 -169 -10 -209
-119 -58 -210 111 -107 197 34 29 76 33 117 12z m1538 -32 l-7 -36 45 27 c33
19 46 23 52 14 4 -7 2 -15 -4 -17 -6 -2 -21 -11 -32 -20 l-21 -17 20 -39 c19
-37 20 -56 2 -56 -4 0 -16 18 -26 40 -20 45 -34 47 -53 7 -13 -26 -23 -33 -34
-21 -6 5 24 124 37 144 15 24 27 9 21 -26z m-1336 -12 c72 -7 83 -23 77 -113
-7 -89 -20 -129 -43 -129 -13 0 -15 6 -10 33 4 17 10 62 13 98 6 75 -5 88 -62
69 -33 -11 -36 -16 -65 -127 -6 -26 -17 -43 -25 -43 -22 0 -19 44 12 143 21
71 29 86 42 81 9 -4 36 -9 61 -12z m1482 12 c3 -3 -1 -26 -8 -52 l-14 -47 43
43 c56 55 70 55 62 -1 -14 -92 -21 -112 -39 -115 -14 -3 -17 0 -13 11 3 9 9
33 13 54 l6 38 -50 -48 c-67 -66 -70 -57 -31 86 9 35 18 44 31 31z m-1029 -30
c3 -3 -1 -24 -9 -46 -19 -55 -19 -54 25 -50 54 5 91 -30 91 -87 0 -104 -78
-170 -153 -129 -12 7 -31 12 -42 12 -16 1 -20 7 -19 33 2 28 59 247 71 266 5
8 27 9 36 1z m-157 -68 c38 -38 45 -85 20 -134 -29 -56 -73 -77 -131 -61 -46
13 -75 52 -75 101 0 76 46 128 113 128 31 0 46 -7 73 -34z m465 -93 c39 -23
43 -45 24 -118 -8 -32 -15 -72 -15 -87 0 -33 -25 -39 -35 -8 -5 16 -10 18 -25
10 -67 -36 -163 29 -131 89 17 32 44 41 115 41 48 0 66 4 66 13 0 35 -59 48
-116 27 -29 -11 -48 -2 -36 16 24 36 106 45 153 17z m391 2 c3 -3 -5 -41 -18
-83 -13 -42 -24 -78 -24 -80 0 -1 27 11 60 28 34 17 65 28 70 25 22 -14 7 -34
-34 -50 l-45 -17 30 -56 c29 -56 34 -92 13 -99 -6 -2 -23 26 -39 62 -36 85
-65 86 -80 3 -5 -28 -12 -38 -26 -38 -11 0 -19 5 -19 11 0 15 58 242 70 273 9
24 29 34 42 21z m-252 -36 c0 -7 11 -8 29 -4 38 8 89 -17 96 -48 10 -37 -18
-179 -37 -191 -9 -5 -19 -8 -21 -6 -2 3 2 45 9 94 14 95 9 116 -27 116 -10 0
-29 -5 -43 -12 -22 -9 -28 -24 -43 -90 -11 -51 -21 -78 -30 -78 -25 0 -25 29
3 129 22 80 32 101 46 101 10 0 18 -5 18 -11z m572 -45 c53 -48 39 -118 -32
-154 -22 -11 -45 -32 -50 -45 -11 -28 -28 -33 -37 -9 -10 26 14 62 56 84 49
24 66 52 51 80 -6 11 -22 23 -35 26 -29 7 -81 -11 -89 -32 -3 -8 -12 -14 -21
-14 -26 0 -16 37 17 65 27 23 39 26 75 22 24 -2 53 -13 65 -23z m-96 -256 c-3
-13 -6 -26 -6 -30 0 -14 -31 -8 -36 7 -9 24 3 45 27 45 17 0 20 -4 15 -22z"/>
<path d="M3311 3750 c-57 -21 -103 -51 -162 -107 -32 -30 -37 -32 -49 -18 -7
8 -18 15 -26 15 -27 0 -23 -20 8 -49 29 -27 35 -29 54 -17 19 13 21 12 33 -19
29 -81 95 -125 188 -125 113 1 186 58 198 155 4 30 5 64 2 76 -5 18 -2 20 25
14 50 -11 31 26 -31 59 -71 38 -163 44 -240 16z m191 -38 c7 -7 14 -43 16 -80
4 -80 -18 -125 -73 -148 -49 -20 -133 -18 -175 5 -36 19 -80 88 -80 125 0 24
70 76 135 101 46 17 159 15 177 -3z"/>
<path d="M3306 3648 c-9 -12 -16 -34 -16 -48 0 -30 25 -70 45 -70 20 0 45 40
45 72 0 27 -30 68 -49 68 -6 0 -17 -10 -25 -22z"/>
<path d="M2557 3713 c-13 -12 -7 -24 15 -32 19 -7 22 -14 20 -57 -4 -67 30
-131 82 -158 58 -29 132 -32 181 -7 l39 21 29 -29 c28 -27 29 -31 17 -67 -7
-22 -23 -59 -36 -83 -28 -52 -30 -64 -7 -59 9 2 27 -7 40 -19 29 -30 73 -31
73 -3 0 13 -7 20 -19 20 -30 0 -44 25 -37 65 7 38 21 46 30 17 9 -28 66 -82
87 -82 28 0 23 16 -19 58 -21 21 -43 56 -50 80 -13 42 -13 43 23 76 55 52 48
66 -34 66 -65 0 -69 1 -64 20 3 11 14 25 24 31 10 5 26 23 34 39 14 28 14 31
0 36 -9 4 -21 -1 -29 -11 -11 -16 -19 -15 -117 18 -57 20 -139 43 -181 51 -88
18 -92 19 -101 9z m155 -58 c35 -7 36 -8 31 -42 -7 -40 13 -83 38 -83 22 0 49
37 49 67 0 21 1 21 33 8 38 -16 44 -35 21 -70 -48 -73 -175 -73 -232 0 -17 21
-22 41 -22 82 0 52 1 55 23 50 12 -3 39 -9 59 -12z"/>
<path d="M2734 3019 c-10 -17 43 -65 100 -91 47 -21 65 -23 211 -23 129 0 181
5 268 23 225 48 284 69 261 92 -6 6 -41 1 -97 -15 -143 -39 -319 -65 -441 -65
-131 0 -200 17 -250 60 -37 33 -42 35 -52 19z"/>
<path d="M3720 2989 c-81 -57 -222 -124 -325 -155 -77 -23 -107 -26 -207 -25
l-118 1 0 -47 c0 -27 -3 -58 -6 -71 -6 -23 -5 -23 67 -20 l74 3 3 42 c3 46 -5
42 121 63 121 21 282 90 414 177 64 42 79 66 46 70 -8 0 -39 -16 -69 -38z
m-542 -246 l3 -43 -45 0 -46 0 0 38 c0 48 6 54 50 50 34 -3 35 -5 38 -45z"/>
<path d="M3127 2753 c-12 -11 -8 -23 8 -23 8 0 15 7 15 15 0 16 -12 20 -23 8z"/>
<path d="M2667 2954 c-11 -11 14 -59 51 -98 37 -38 122 -86 155 -86 14 0 17
-9 17 -50 l0 -50 69 0 69 0 4 70 3 70 -90 0 c-72 0 -98 4 -130 21 -52 27 -91
64 -105 100 -12 27 -29 37 -43 23z m341 -211 l3 -43 -45 0 -46 0 0 46 0 45 43
-3 c42 -3 42 -3 45 -45z"/>
<path d="M2950 2745 c0 -9 5 -15 11 -13 6 2 11 8 11 13 0 5 -5 11 -11 13 -6 2
-11 -4 -11 -13z"/>
<path d="M2890 2570 l0 -70 70 0 70 0 0 70 0 70 -70 0 -70 0 0 -70z m116 24
c-3 -9 -6 -29 -6 -45 0 -29 -1 -30 -42 -27 -34 2 -43 7 -42 21 1 9 2 28 3 42
1 23 5 25 47 25 38 0 45 -3 40 -16z"/>
<path d="M2950 2565 c0 -8 5 -15 10 -15 6 0 10 7 10 15 0 8 -4 15 -10 15 -5 0
-10 -7 -10 -15z"/>
<path d="M3060 2625 c0 -8 7 -15 15 -15 8 0 15 7 15 15 0 8 -7 15 -15 15 -8 0
-15 -7 -15 -15z"/>
<path d="M3180 2609 c0 -38 24 -35 28 4 2 19 -1 27 -12 27 -11 0 -16 -10 -16
-31z"/>
<path d="M3118 2568 c-3 -45 -22 -62 -31 -27 -7 27 -27 15 -27 -17 0 -23 2
-24 70 -24 68 0 70 1 70 25 0 27 -15 34 -24 10 -11 -30 -26 -14 -26 30 0 33
-4 45 -14 45 -10 0 -16 -13 -18 -42z"/>
<path d="M1376 3523 c-9 -22 10 -41 25 -26 13 13 5 43 -10 43 -5 0 -12 -8 -15
-17z"/>
<path d="M1073 3524 c-8 -21 13 -42 28 -27 13 13 5 43 -11 43 -6 0 -13 -7 -17
-16z"/>
<path d="M1273 3524 c-8 -21 13 -42 28 -27 13 13 5 43 -11 43 -6 0 -13 -7 -17
-16z"/>
<path d="M1475 3500 c-3 -5 -2 -10 4 -10 5 0 13 5 16 10 3 6 2 10 -4 10 -5 0
-13 -4 -16 -10z"/>
<path d="M1486 2444 c-9 -26 -16 -51 -16 -55 0 -10 82 -29 124 -29 35 0 66 21
66 45 0 43 -35 68 -111 79 l-47 7 -16 -47z"/>
<path d="M1442 2280 c-18 -76 -18 -76 46 -89 83 -18 123 -12 142 22 13 24 13
30 0 55 -17 29 -55 46 -131 57 l-45 7 -12 -52z"/>
<path d="M1541 1946 c-9 -11 -5 -15 25 -20 42 -8 52 -3 34 19 -16 19 -44 19
-59 1z"/>
<path d="M1935 1856 c-19 -13 -17 -15 18 -21 45 -9 54 -3 32 19 -20 20 -26 20
-50 2z"/>
<path d="M2260 1726 c0 -20 26 -27 55 -16 38 14 30 30 -15 30 -28 0 -40 -4
-40 -14z"/>
<path d="M2790 1620 c-22 -14 1 -32 36 -28 39 4 44 33 7 36 -15 1 -35 -3 -43
-8z"/>
<path d="M2971 1626 c-7 -8 -11 -30 -9 -48 2 -25 8 -34 25 -36 29 -4 56 37 47
72 -7 29 -43 36 -63 12z"/>
<path d="M1626 1558 c-25 -35 -21 -103 6 -122 32 -22 61 -20 86 7 28 30 30 97
4 120 -27 25 -78 22 -96 -5z"/>
<path d="M2351 1384 c-25 -32 -27 -86 -5 -108 21 -22 57 -20 78 3 23 25 33 96
16 116 -20 24 -66 19 -89 -11z"/>
<path d="M2106 1455 c-37 -37 -34 -99 6 -128 40 -30 78 -15 97 39 12 34 12 44
0 70 -11 23 -22 30 -50 32 -24 2 -42 -3 -53 -13z"/>
<path d="M2546 1255 c-3 -8 2 -22 11 -31 28 -28 113 -4 113 32 0 21 -116 20
-124 -1z"/>
</g>
</svg>
